<svg id="图层_1" data-name="图层 1" xmlns="http://www.w3.org/2000/svg" viewBox="0 0 100 100"><defs><style>.cls-1{fill:#fff;}</style></defs><title>logo</title><path class="cls-1" d="M0,0V100H100V0H0ZM57.8,50l-2.2,9.7-3.4-1.8ZM57.2,73.5l-1,1a0.79,0.79,0,0,1-1.1-.1l-0.5-.5L43,87.2a7.14,7.14,0,0,1-2.2,4.6,7.54,7.54,0,0,1-10.6,0,7.42,7.42,0,0,1,0-10.5,7.92,7.92,0,0,1,4.7-2.2L48.3,67.6,47.7,67a0.79,0.79,0,0,1-.1-1.1l1-1a0.79,0.79,0,0,1,1.1.1l7.4,7.4A0.79,0.79,0,0,1,57.2,73.5Zm0.1-10.4,12.1-7.7L60.6,66.5Zm6.9,8.6V68.2l7.8,2Z"/></svg>