<?xml version="1.0" encoding="utf-8"?>
<!-- Generator: Adobe Illustrator 19.1.1, SVG Export Plug-In . SVG Version: 6.00 Build 0)  -->
<svg version="1.1" id="图层_1" xmlns="http://www.w3.org/2000/svg" xmlns:xlink="http://www.w3.org/1999/xlink" x="0px" y="0px"
	 viewBox="0 0 100 100" style="enable-background:new 0 0 100 100;" xml:space="preserve">
<style type="text/css">
	
		.st0{fill-rule:evenodd;clip-rule:evenodd;fill:none;stroke:#3E3A39;stroke-linecap:round;stroke-linejoin:round;stroke-miterlimit:10;}
</style>
<g>
	<path class="st0" d="M30.2,91.8c-2.9-2.9-2.9-7.6,0-10.5c1.3-1.3,3-2,4.7-2.2l13.4-11.5L47.7,67c-0.3-0.3-0.4-0.8-0.1-1.1l1-1
		c0.3-0.3,0.8-0.2,1.1,0.1l7.4,7.4c0.3,0.3,0.4,0.8,0.1,1.1l-1,1c-0.3,0.3-0.8,0.2-1.1-0.1l-0.5-0.5L43,87.2
		c-0.1,1.7-0.9,3.3-2.2,4.6C37.9,94.7,33.1,94.7,30.2,91.8z"/>
	<polygon class="st0" points="52.2,57.9 57.8,50 55.6,59.7 	"/>
	<polygon class="st0" points="57.3,63.1 69.4,55.4 60.6,66.5 	"/>
	<polygon class="st0" points="64.2,68.2 72,70.2 64.2,71.7 	"/>
</g>
</svg>
